<svg version="1.1" xmlns="http://www.w3.org/2000/svg" style="display: block;" viewBox="0 0 2048 2048" width="1024" height="1024">
<path transform="translate(0,0)" fill="rgb(246,246,240)" d="M 0 0 L 2048 0 L 2048 2048 L 1564.61 2048 L 1543.93 2048 L 1524.7 2048 L 1507.05 2048 L 1402.68 2048 L 1400.28 2048 L 1331.35 2048 L 1315.31 2048 L 1297.64 2048 L 1281.27 2048 L 1256.75 2048 L 1243.44 2048 L 1200.69 2048 L 1149.78 2048 L 1114.97 2048 L 1072.66 2048 L 936.825 2048 L 925.106 2048 L 719.348 2048 L 698.138 2048 L 0 2048 L 0 0 z"/>
<path transform="translate(0,0)" fill="rgb(93,20,88)" d="M 838.921 759.028 C 708.766 648.876 603.567 539.929 540.622 377.834 C 521.62 328.9 507.172 278.608 502.793 226.084 C 500.258 195.679 497.28 130.734 517.039 107.425 C 522.499 100.984 528.353 98.4789 536.715 97.9833 C 554.628 96.9215 574.288 102.511 591.189 107.865 C 656.348 128.505 714.03 165.895 764.043 212.171 C 852.558 294.071 916.943 394.874 975.345 499.407 C 1006.53 555.219 1036.25 612.672 1061.61 671.397 C 1081.72 668.116 1101.75 664.725 1122.07 663.035 C 1248.77 652.501 1370.53 682.387 1474.12 756.916 C 1497.24 773.552 1527.67 798.202 1535.78 826.597 C 1529.5 845.68 1519.23 858.644 1503.33 870.92 C 1542.33 915.877 1569.43 972.412 1588.03 1028.73 C 1597.16 1056.4 1604.61 1087.34 1619.77 1112.43 C 1633.45 1135.08 1667.15 1136.33 1680.97 1160.43 C 1683.36 1164.6 1684.73 1169.65 1686.23 1174.21 C 1693.68 1174.32 1730.03 1175.16 1733.89 1178.34 C 1718.45 1179.14 1702.87 1177.81 1687.4 1177.8 C 1689.95 1194.18 1691.06 1210.98 1693.92 1227.24 C 1716.87 1239.14 1739.94 1245.85 1761.98 1260.44 C 1739.28 1252.18 1717.09 1242.82 1694.02 1235.53 C 1694.03 1250.78 1692.93 1265.98 1691.85 1281.19 C 1709.1 1299.15 1726.72 1316.82 1740.5 1337.69 C 1722.74 1323.34 1706.19 1306.49 1690.54 1289.87 C 1679.96 1353.66 1638.31 1404.26 1587.03 1441.17 C 1510.62 1496.17 1398.65 1531.32 1307.11 1551.4 C 1301.36 1572.54 1294.7 1593.38 1289.44 1614.65 C 1390.72 1672.41 1446.9 1779.89 1495.94 1881.21 C 1523.71 1938.59 1545.51 1986.53 1564.61 2048 L 1543.93 2048 L 1524.7 2048 L 1507.05 2048 L 1402.68 2048 L 1400.28 2048 L 1331.35 2048 L 1315.31 2048 L 1297.64 2048 L 1281.27 2048 L 1256.75 2048 L 1243.44 2048 L 1200.69 2048 L 1149.78 2048 L 1114.97 2048 L 1072.66 2048 L 936.825 2048 L 925.106 2048 L 719.348 2048 L 698.138 2048 C 699.99 2034.8 705.568 2021.75 709.221 2008.89 C 715.637 1986.3 721.588 1963.58 728.361 1941.09 C 733.231 1924.91 738.976 1909 743.772 1892.81 C 749.89 1872.15 748.21 1859.87 758.365 1837.9 C 765.134 1823.26 775.29 1812.17 783.584 1798.68 C 789.325 1789.34 794.141 1779.42 799.868 1770.05 C 833.762 1714.56 872.005 1657.72 921.271 1614.7 C 919.775 1595.9 932.104 1576.66 942.247 1561.72 C 844.469 1545.11 753.462 1499.89 695.066 1417.6 C 680.904 1397.64 670.209 1375.7 660.905 1353.15 A 417.339 417.339 0 0 1 634.715 1118.48 C 639.715 1089.86 650.027 1063.33 657.593 1035.44 C 636.811 1022.86 615.702 1010.55 595.443 997.15 C 567.932 978.952 541.221 958.911 515.064 938.83 C 368.092 825.994 242.638 683.906 197.453 500.022 C 184.952 449.149 169.77 349.25 197.142 303.152 C 202.026 294.928 208.167 289.102 217.568 286.644 C 266.29 273.901 360.358 318.815 402.95 345.004 C 553.291 437.444 658.045 575.884 746.244 725.934 C 759.718 748.856 771.765 772.627 784.878 795.768 C 803.392 784.562 820.691 770.86 838.921 759.028 z"/>
<path transform="translate(0,0)" fill="rgb(246,246,240)" d="M 1078.95 1993.76 C 1079.91 1994.77 1080.79 1996.05 1081.45 1997.27 C 1085.73 2005.16 1101.96 2037.42 1100.18 2044.15 C 1096.91 2045.64 1094.04 2047.29 1090.49 2045.97 C 1088.99 2036.6 1087.61 2027.16 1085.38 2017.93 C 1083.41 2009.81 1080.64 2001.96 1078.95 1993.76 z"/>
<path transform="translate(0,0)" fill="rgb(246,246,240)" d="M 875.478 1470.25 C 878.435 1470.47 880.826 1470.85 883.635 1471.82 C 883.538 1478.33 874.408 1511.83 872.598 1522.21 L 862.902 1519.14 C 869.409 1504.25 873.529 1486.42 875.478 1470.25 z"/>
<path transform="translate(0,0)" fill="rgb(246,246,240)" d="M 1309.13 695.635 C 1318.13 696.499 1343.82 704.477 1350 710.396 C 1352.86 713.126 1353 715.764 1353.06 719.429 C 1351.04 719.837 1349.21 719.897 1347.16 719.753 C 1331.99 718.684 1318.77 706.506 1309.13 695.635 z"/>
<path transform="translate(0,0)" fill="rgb(246,246,240)" d="M 1509.47 947.447 C 1514.73 949.612 1518.51 953.565 1521.72 958.213 C 1525.93 964.31 1529.12 972.402 1527.61 979.909 C 1526.81 983.894 1525.26 985.501 1521.98 987.736 C 1517.31 986.237 1514.05 985.028 1510.72 981.351 C 1505.24 975.3 1501.63 967.249 1502.42 958.975 C 1502.97 953.242 1505.17 950.955 1509.47 947.447 z"/>
<path transform="translate(0,0)" fill="rgb(246,246,240)" d="M 829.95 1464.86 C 843.437 1468.76 856.912 1469.87 870.89 1470.14 C 867.458 1485.05 862.386 1499.91 858.227 1514.67 L 857.215 1516.2 C 850.742 1516.87 827.531 1504.37 821.032 1500.93 C 824.031 1488.91 827.151 1476.94 829.95 1464.86 z"/>
<path transform="translate(0,0)" fill="rgb(246,246,240)" d="M 870.841 1699.82 L 894.13 1699.92 C 879.275 1719.64 862.572 1737.82 848.036 1757.87 C 844.719 1762.44 832.163 1785.01 829.94 1786.82 C 829.095 1787.51 827.943 1787.7 826.945 1788.13 C 820.362 1790 813.902 1792.19 807.423 1794.38 C 813.982 1780.5 823.036 1767.62 831.481 1754.85 C 843.93 1736.02 856.511 1717.29 870.841 1699.82 z"/>
<path transform="translate(0,0)" fill="rgb(246,246,240)" d="M 1488.62 1995.47 C 1494.74 2012.89 1500.23 2030.88 1507.05 2048 L 1402.68 2048 C 1404.24 2046.08 1405.54 2044.65 1407.75 2043.45 C 1415.79 2039.05 1424.37 2035.42 1432.54 2031.2 C 1452.06 2021.09 1471.39 2009.11 1488.62 1995.47 z"/>
<path transform="translate(0,0)" fill="rgb(246,246,240)" d="M 927.265 1146.87 C 947.581 1150.15 970.726 1171.78 983.208 1187.2 C 1011.21 1221.79 1023.38 1267.57 1018.48 1311.52 A 176.88 176.88 0 0 1 953.223 1428.47 C 925.669 1450.14 891.606 1461.93 856.495 1457.62 C 851.737 1457.18 847.241 1456.11 842.601 1455.03 C 859.798 1455.62 876.737 1455.54 893.614 1451.73 C 930.786 1443.34 965.39 1413.59 985.026 1381.71 C 1008.9 1342.95 1015.54 1294.22 1005.06 1250.09 C 994.215 1204.48 966.605 1171.26 927.265 1146.87 z"/>
<path transform="translate(0,0)" fill="rgb(246,246,240)" d="M 1114.97 2048 A 3028.98 3028.98 0 0 1 1230.32 1991.01 C 1246.87 1983.21 1264.15 1973.63 1281.43 1967.78 C 1285.72 1966.33 1290.34 1965.12 1294.81 1966.31 C 1303.99 1978.05 1311.71 2030.65 1315.31 2048 L 1297.64 2048 C 1296.41 2031.68 1294.59 2011.61 1287.83 1996.59 C 1286.79 1994.26 1283.85 1988.49 1281.12 1987.9 C 1277.08 1987.03 1270.65 1989.74 1266.89 1991.31 C 1246.94 1999.63 1227.66 2010.76 1208.24 2020.32 C 1188.9 2029.83 1168.93 2038.13 1149.78 2048 L 1114.97 2048 z"/>
<path transform="translate(0,0)" fill="rgb(246,246,240)" d="M 1524.7 2048 C 1488.6 1929.44 1451.86 1833.72 1379.16 1732.04 C 1363.12 1709.61 1344.94 1686.97 1324.18 1668.79 C 1314.94 1660.7 1292.61 1650.43 1287.31 1640.71 C 1285.56 1637.49 1285.79 1636.5 1287.24 1633.41 L 1288.66 1632.74 C 1316.19 1648.16 1341.13 1674.4 1361.19 1698.45 C 1374.94 1714.95 1388.9 1731.45 1401.1 1749.15 C 1435.23 1798.7 1461.2 1855.6 1484.96 1910.76 A 956.977 956.977 0 0 1 1501.8 1952.85 C 1504.45 1960.05 1506.55 1967.86 1509.67 1974.82 C 1511.37 1978.61 1516.04 1980.1 1519.64 1981.48 C 1529.76 2001.09 1536.99 2026.86 1543.93 2048 L 1524.7 2048 z"/>
<path transform="translate(0,0)" fill="rgb(93,20,88)" d="M 1149.78 2048 C 1168.93 2038.13 1188.9 2029.83 1208.24 2020.32 C 1227.66 2010.76 1246.94 1999.63 1266.89 1991.31 C 1270.65 1989.74 1277.08 1987.03 1281.12 1987.9 C 1283.85 1988.49 1286.79 1994.26 1287.83 1996.59 C 1294.59 2011.61 1296.41 2031.68 1297.64 2048 L 1281.27 2048 L 1256.75 2048 L 1243.44 2048 L 1200.69 2048 L 1149.78 2048 z"/>
<path transform="translate(0,0)" fill="rgb(246,246,240)" d="M 1277.98 2033.3 C 1278.96 2038.24 1279.92 2043.15 1281.27 2048 L 1256.75 2048 L 1277.98 2033.3 z"/>
<path transform="translate(0,0)" fill="rgb(246,246,240)" d="M 1200.69 2048 C 1209.04 2042.63 1218.49 2038.16 1227.22 2033.39 C 1242.39 2025.11 1257.48 2016.58 1272.93 2008.82 C 1273.91 2014.05 1274.6 2019.47 1276.59 2024.41 C 1266.09 2033.03 1254.38 2039.99 1243.44 2048 L 1200.69 2048 z"/>
<path transform="translate(0,0)" fill="rgb(246,246,240)" d="M 1416.14 803.412 C 1443.03 800.783 1475.96 804.202 1501.67 811.98 C 1508.13 813.936 1515.38 817.275 1518.46 823.71 C 1520.44 827.852 1520.13 832.41 1518.63 836.645 C 1516.62 842.324 1503.55 861.951 1498.25 864.568 L 1497.69 863.797 L 1495.57 863.6 C 1494.8 858.386 1509.91 845.041 1509.42 833.108 C 1509.24 828.744 1506.97 824.881 1503.58 822.196 C 1483.69 806.425 1431.83 811.137 1407.11 813.258 C 1376.53 815.883 1346.82 822.827 1317.39 831.299 C 1192.92 867.132 1096.38 941.009 1013.74 1039.04 A 1037.93 1037.93 0 0 0 969.041 1099.23 C 962.286 1109.21 956.409 1121.56 948.919 1130.74 C 946.675 1133.49 943.69 1136.84 939.994 1137.22 L 939.557 1136.22 C 942.211 1117.59 997.35 1046.52 1010.54 1030.9 C 1114.34 907.979 1253.06 817.13 1416.14 803.412 z"/>
<path transform="translate(0,0)" fill="rgb(246,246,240)" d="M 1328.6 2022.98 C 1377.66 2010.71 1434.13 1987.26 1472.94 1954.77 L 1485.89 1988.69 C 1468.5 2003.38 1448.65 2015.53 1428.69 2026.44 C 1421.16 2030.55 1409.78 2033.11 1403.64 2038.6 C 1401.23 2040.76 1400.87 2044.96 1400.28 2048 L 1331.35 2048 C 1330.58 2039.64 1329.42 2031.33 1328.6 2022.98 z"/>
<path transform="translate(0,0)" fill="rgb(246,246,240)" d="M 1495.11 934.564 C 1496.12 934.942 1495.46 934.612 1496.73 936.07 C 1495.58 942.858 1494.52 949.924 1494.15 956.796 C 1493.02 977.661 1510.36 1016.8 1524.62 1032.06 C 1531.68 1039.61 1542.9 1049.58 1553.75 1049.45 A 14.2056 14.2056 0 0 0 1564.06 1044.86 C 1571.55 1036.78 1570.1 1024.19 1569.87 1014.1 C 1579.1 1037.67 1583.88 1061.71 1579.18 1086.77 C 1577.18 1093.55 1574.56 1100.48 1569.56 1105.64 C 1565.05 1110.3 1559.32 1112.19 1552.91 1111.99 C 1540.02 1111.59 1527.48 1102.87 1519.08 1093.52 C 1492.44 1063.86 1479.97 1001.67 1482.49 963.035 C 1483.26 951.306 1486.13 942.42 1495.11 934.564 z"/>
<path transform="translate(0,0)" fill="rgb(246,246,240)" d="M 922.855 1702.69 C 950.194 1705 974.381 1713.17 999.839 1722.74 C 991.87 1732.18 982.841 1740.93 974.457 1750.02 C 959.989 1765.72 945.751 1782.29 932.837 1799.29 C 908.969 1787.38 881.971 1783.13 855.514 1784.6 A 416.623 416.623 0 0 1 922.855 1702.69 z"/>
<path transform="translate(0,0)" fill="rgb(246,246,240)" d="M 895.574 1668.36 C 923.77 1665.41 959.29 1674.21 985.97 1683.25 C 1122.94 1729.62 1210.16 1832 1272.51 1958.31 C 1269.04 1960 1264.99 1962.53 1261.08 1962.6 L 1259.59 1960.75 C 1253.68 1947.05 1245.99 1933.66 1238.58 1920.71 C 1197.57 1848.97 1140.27 1785.6 1069.8 1741.83 C 1022.23 1712.28 969.7 1689.68 913.904 1682.74 C 902.593 1681.33 889.886 1679.55 878.649 1682.17 C 883.638 1676.56 888.044 1670.4 895.574 1668.36 z"/>
<path transform="translate(0,0)" fill="rgb(246,246,240)" d="M 858.424 1798.41 C 876.909 1797.04 896.24 1800.11 913.973 1805.23 C 1005.75 1831.72 1091.51 1944.95 1136 2025.3 C 1129.46 2028.87 1122.88 2032.1 1116.1 2035.17 C 1106.91 2014.91 1096.79 1995.98 1084.39 1977.47 C 1069.28 1955.38 1053.97 1934.27 1035.93 1914.44 C 991.107 1865.18 936.318 1820.15 866.827 1817.1 C 831.245 1815.55 800.104 1823.62 773.486 1848.01 C 777.749 1839.91 781.824 1830.98 787.831 1824.01 C 803.703 1805.59 835.621 1800.41 858.424 1798.41 z"/>
<path transform="translate(0,0)" fill="rgb(246,246,240)" d="M 966.199 1566.94 C 981.068 1566.33 997.042 1570.87 1012.03 1572 A 993.308 993.308 0 0 0 1128.93 1574.82 L 1167.44 1607.75 C 1178.46 1616.99 1204.07 1635.87 1211.33 1646.57 C 1187.54 1644.74 1163.55 1641.65 1140 1637.79 A 452.863 452.863 0 0 1 996.188 1588.73 C 985.629 1582.95 973.335 1576.89 966.199 1566.94 z"/>
<path transform="translate(0,0)" fill="rgb(246,246,240)" d="M 1205.57 1896.09 C 1220.29 1912.53 1236.42 1949.31 1246.93 1969.69 C 1226.64 1978.5 1206.44 1988.39 1186.68 1998.35 C 1175.16 2004.15 1163.67 2011 1151.63 2015.61 C 1140.17 1991.33 1123.6 1970.56 1108.68 1948.41 C 1140.57 1930.14 1171.56 1910.28 1205.57 1896.09 z"/>
<path transform="translate(0,0)" fill="rgb(246,246,240)" d="M 1019.3 1731.83 C 1052.12 1745.44 1086.34 1766.6 1112.62 1790.53 C 1087.72 1808.09 1060.91 1823.25 1035.5 1840.13 C 1030.37 1843.73 1025.46 1847.61 1020.53 1851.49 C 999.083 1833.92 976.5 1818.95 951.448 1806.99 C 965.401 1779.73 998.122 1753.9 1019.3 1731.83 z"/>
<path transform="translate(0,0)" fill="rgb(246,246,240)" d="M 1129.57 1806.96 C 1144.2 1814.65 1181.81 1863.83 1193.8 1878.8 C 1165.29 1890.86 1123.03 1915.92 1097.63 1934.1 C 1087.24 1924.05 1078.55 1911.12 1069.16 1900.04 C 1058.02 1886.89 1045.71 1875.29 1032.94 1863.8 C 1066.19 1841.99 1094.1 1824.93 1129.57 1806.96 z"/>
<path transform="translate(0,0)" fill="rgb(246,246,240)" d="M 1304.34 1666.74 C 1317.22 1675.05 1326.77 1692 1335.79 1704.04 C 1389.43 1775.66 1436.77 1852.01 1467.1 1936.68 C 1460.16 1941.36 1453.35 1946.25 1446.5 1951.06 L 1432.01 1960.95 C 1421.07 1940.01 1412.82 1917.21 1403.08 1895.64 A 1912.64 1912.64 0 0 0 1338.71 1764.28 C 1327.68 1743.98 1317.32 1723.68 1302.53 1705.78 C 1302.82 1705.62 1303.11 1705.47 1303.4 1705.31 L 1304.84 1704.5 C 1308.39 1702.53 1311.25 1701.07 1312.9 1697.15 C 1316.75 1688.01 1308.01 1675.1 1304.34 1666.74 z"/>
<path transform="translate(0,0)" fill="rgb(246,246,240)" d="M 1290.22 1709.19 C 1290.98 1709.19 1291.69 1709.53 1292.42 1709.73 C 1299.05 1727.74 1315.89 1754.33 1325.41 1772.76 A 3138.74 3138.74 0 0 1 1387.88 1897.67 C 1398.83 1920.59 1410.35 1943.27 1419.1 1967.15 C 1406.48 1973.41 1393.69 1979.16 1380.8 1984.84 C 1376.85 1981.72 1355.13 1926.65 1350.53 1916.46 A 3103.59 3103.59 0 0 0 1292.82 1796.33 C 1279.14 1769.4 1264.61 1742.86 1251.59 1715.6 C 1264.68 1714.51 1277.44 1712.12 1290.22 1709.19 z"/>
<path transform="translate(0,0)" fill="rgb(93,20,88)" d="M 1277.64 1724.62 C 1283.96 1725.34 1289.72 1727.22 1295.75 1729.15 C 1294 1736.3 1292.31 1740.82 1293.71 1748.24 C 1292.56 1748.61 1292.31 1748.76 1290.96 1748.83 C 1287.21 1749.03 1281.13 1746.86 1278.87 1743.9 C 1274.45 1738.11 1276.52 1731.1 1277.64 1724.62 z"/>
<path transform="translate(0,0)" fill="rgb(93,20,88)" d="M 1370.85 1924.7 C 1376.3 1926.12 1381.64 1928.31 1386.94 1930.2 C 1387.02 1930.45 1387.11 1930.71 1387.18 1930.96 C 1390.37 1941.8 1385.36 1938.16 1382.03 1945.5 C 1381.37 1946.97 1382.47 1948.43 1383.01 1949.84 C 1384.07 1951 1383.82 1951.22 1383.94 1952.73 C 1381.85 1953.82 1381.19 1954 1378.74 1953.25 C 1373.08 1951.52 1369.76 1944.3 1367.22 1939.56 C 1367.99 1934.29 1369.16 1929.73 1370.85 1924.7 z"/>
<path transform="translate(0,0)" fill="rgb(93,20,88)" d="M 1325.79 1826.88 C 1330.91 1828.03 1343.06 1829.25 1346.5 1832.94 C 1345.59 1839.66 1346.47 1847.74 1344.65 1854.04 C 1341.97 1855.09 1339.91 1853.77 1337.22 1852.93 C 1336.5 1852.06 1335.79 1851.18 1335.09 1850.29 L 1334.52 1850.14 L 1331.91 1850.02 C 1329.44 1848.51 1329.25 1847.73 1327.91 1845.11 A 303.338 303.338 0 0 0 1325.79 1826.88 z"/>
<path transform="translate(0,0)" fill="rgb(94,6,68)" d="M 1327.91 1845.11 L 1328.63 1837.28 L 1329.79 1836.78 L 1333.22 1839.68 L 1336.9 1839.35 C 1336.76 1842.97 1335.47 1846.64 1334.52 1850.14 L 1331.91 1850.02 C 1329.44 1848.51 1329.25 1847.73 1327.91 1845.11 z"/>
<path transform="translate(0,0)" fill="rgb(246,246,240)" d="M 951.362 1578.58 A 177.241 177.241 0 0 0 955.658 1581.6 C 1036.91 1636.88 1185.74 1673.09 1282.81 1654.56 C 1291.69 1665.22 1298.14 1679.1 1305.16 1691.11 C 1300.78 1692.9 1296.23 1694.21 1291.73 1695.63 C 1255.74 1705.36 1215.63 1703.94 1178.92 1698.48 C 1110.45 1688.31 1032.33 1665.98 971.584 1632.55 C 960.823 1626.63 948.441 1620.77 941.018 1610.74 C 940.476 1597.3 943.518 1589.24 951.362 1578.58 z"/>
<path transform="translate(0,0)" fill="rgb(246,246,240)" d="M 942.643 1862.97 C 976.227 1881.1 1029.18 1929.5 1049.08 1962.82 C 1053.8 1970.71 1056.8 1979.46 1059.41 1988.23 C 1065.24 2007.81 1069.09 2027.9 1072.66 2048 L 936.825 2048 A 1977.04 1977.04 0 0 1 942.643 1862.97 z"/>
<path transform="translate(0,0)" fill="rgb(246,246,240)" d="M 1422.22 767.423 C 1431.06 767.171 1440.07 766.624 1448.9 767.062 C 1471.11 768.163 1491.37 788.974 1505.7 804.681 C 1455.09 787.63 1401.04 793.474 1349.74 803.766 C 1321.62 809.409 1295.46 818.521 1268.79 828.928 C 1137.64 880.099 1029.68 976.384 952.201 1092.82 A 792.486 792.486 0 0 0 928.525 1131.86 C 918.54 1128.07 908.195 1125.59 897.822 1123.16 C 919.061 1077.84 964.5 1021.04 998.182 983.6 C 1014.64 965.308 1032.35 948.798 1050.56 932.266 C 1155.53 836.961 1279.48 775.057 1422.22 767.423 z"/>
<path transform="translate(0,0)" fill="rgb(246,246,240)" d="M 927.029 1624.21 C 945.471 1632.4 961.779 1645.52 980.339 1654.02 C 1000.19 1663.1 1020.83 1670.18 1041.46 1677.23 C 1107.14 1699.65 1175.14 1716.87 1244.97 1715.97 C 1278.03 1774.5 1308.94 1838.82 1337.09 1899.98 A 2564.45 2564.45 0 0 1 1358 1946.35 C 1363.79 1959.73 1368.98 1973.54 1376.11 1986.27 A 943.662 943.662 0 0 1 1342.24 1999.39 L 1324.76 2005.16 C 1321.92 1992.36 1319.09 1976.88 1311.44 1965.96 C 1305.43 1957.37 1298.39 1954.98 1288.62 1953.16 C 1256.67 1885.47 1214.22 1821.14 1159.5 1769.69 C 1092.44 1706.65 993.802 1651.71 899.752 1654.57 A 188.64 188.64 0 0 1 927.029 1624.21 z"/>
<path transform="translate(0,0)" fill="rgb(246,246,240)" d="M 719.348 2048 A 4599.95 4599.95 0 0 1 755.218 1920.87 C 759.297 1907.38 763.447 1887.31 770.861 1875.73 C 776.533 1866.88 788.67 1859.64 797.596 1854.48 C 829.529 1836.01 865.482 1834.28 900.554 1843.68 C 911.881 1846.71 923.69 1850.57 933.153 1857.7 C 926.117 1920.43 924.49 1984.88 925.106 2048 L 719.348 2048 z"/>
<path transform="translate(0,0)" fill="rgb(246,246,240)" d="M 856.45 1139.43 C 886.261 1139.42 914.359 1147.96 938.241 1166.07 C 970.872 1190.82 991.398 1228.87 996.871 1269.28 C 1002.62 1311.68 994.029 1354.3 967.631 1388.55 C 944.022 1419.19 909.613 1439.94 871.249 1444.91 C 837.31 1446.68 810.247 1438.21 783.99 1416.09 A 159.245 159.245 0 0 1 727.07 1304.46 C 723.676 1260.36 736.329 1217.59 765.49 1183.89 C 788.676 1157.09 821.364 1141.83 856.45 1139.43 z"/>
<path transform="translate(0,0)" fill="rgb(93,20,88)" d="M 849.673 1171.44 A 103.784 103.784 0 0 1 917.108 1196.55 C 943.625 1218.98 959.928 1255.46 962.55 1289.76 C 965.214 1324.6 953.499 1362.24 930.567 1388.76 A 110.756 110.756 0 0 1 853.657 1427.07 C 827.165 1426.86 803.984 1419.23 783.612 1401.91 C 756.985 1379.28 739.583 1343.86 737.124 1309.07 C 734.639 1273.91 744.045 1238.59 767.42 1211.7 C 789.77 1185.98 816.011 1173.65 849.673 1171.44 z"/>
<path transform="translate(0,0)" fill="rgb(246,246,240)" d="M 849.634 1180.42 C 872.947 1179.88 896.239 1189.38 913.524 1204.79 C 937.999 1226.62 951.829 1260.38 953.623 1292.79 A 126.619 126.619 0 0 1 920.192 1386.13 C 901.675 1406.37 878.154 1417.11 850.876 1418.34 C 827.251 1418.29 805.416 1410.57 787.349 1395.22 C 763.008 1374.54 747.748 1341.6 745.201 1309.99 C 742.549 1277.06 751.83 1241.84 773.607 1216.53 C 793.654 1193.23 819.463 1182.66 849.634 1180.42 z"/>
<path transform="translate(0,0)" fill="rgb(93,20,88)" d="M 830.018 1217.3 C 846.785 1216.37 861.156 1217.55 875.893 1226.33 C 894.023 1237.12 907.744 1256.6 912.783 1277 C 918.859 1301.6 915.48 1327.09 902.206 1348.74 C 891.061 1366.92 875.676 1377.91 855.01 1382.8 C 838.114 1385.83 822.026 1382.56 807.408 1373.63 A 86.2511 86.2511 0 0 1 768.756 1319.99 C 763.514 1296.84 767.557 1271.47 780.448 1251.48 C 792.306 1233.1 808.675 1221.76 830.018 1217.3 z"/>
<path transform="translate(0,0)" fill="rgb(246,246,240)" d="M 857.615 1231.76 C 860.604 1231.81 863.25 1232.55 865.935 1233.85 C 878.948 1240.15 887.373 1252.84 891.966 1266.18 A 72.7853 72.7853 0 0 1 888.026 1323.34 C 879.346 1340.57 865.933 1352.43 847.689 1358.55 L 842.373 1358.58 C 842.458 1357.88 846.172 1357.11 847.083 1356.82 C 858.626 1353.25 868.525 1344.75 875.484 1335.04 C 887.838 1317.8 892.342 1297.09 888.74 1276.22 C 885.294 1256.25 873.736 1243.05 857.615 1231.76 z"/>
<path transform="translate(0,0)" fill="rgb(246,246,240)" d="M 829.824 1234.3 C 839.202 1233.54 848.846 1234.95 856.985 1239.9 C 867.174 1246.09 873.587 1257.08 876.269 1268.48 C 879.899 1283.92 877.796 1300.35 869.084 1313.77 C 861.443 1325.55 850.706 1332.95 837.032 1335.79 A 42.93 42.93 0 0 1 810.492 1329.05 C 799.966 1322.24 792.919 1311.15 790.192 1299.01 C 786.844 1284.11 790.316 1268.74 798.586 1256.05 C 806.089 1244.55 816.341 1237.17 829.824 1234.3 z"/>
<path transform="translate(0,0)" fill="rgb(246,246,240)" d="M 663.666 267.084 C 671.23 266.992 678.025 268.126 685.087 270.797 C 700.124 276.484 713.72 286.549 726.575 296.062 C 825.003 368.892 907.298 513.003 962.072 621.002 C 973.412 643.363 985.23 665.603 995.565 688.451 A 1112.64 1112.64 0 0 0 950.755 704.53 C 935.577 710.259 920.63 716.884 905.927 723.736 C 803.975 648.641 685.404 512.505 647.186 390.788 C 638.199 362.167 626.172 311.347 641.464 283.664 C 646.536 274.483 653.851 269.98 663.666 267.084 z"/>
<path transform="translate(0,0)" fill="rgb(246,246,240)" d="M 531.833 120.044 C 552.551 118.707 573.889 123.794 593.163 131.048 C 612.913 138.481 632.964 146.95 651.432 157.187 C 693.071 180.268 728.785 209.489 762.691 242.684 C 855.341 333.391 920.555 443.919 980.191 558.039 C 1000.69 597.265 1022.57 635.974 1040.93 676.249 A 1405.06 1405.06 0 0 1 1000.99 687.297 C 986.053 658.999 973.412 629.518 958.464 601.239 C 941.157 568.497 923.578 535.345 904.657 503.499 C 858.971 426.607 779.602 310.35 708.166 257.538 C 696.617 248.999 684.402 242.135 671.345 236.198 C 661.497 231.698 650.111 228.615 639.218 229.867 C 631.123 230.797 623.85 234.266 618.835 240.811 C 604.329 259.741 605.884 291.71 608.974 313.97 C 625.483 432.916 716.125 557.8 799.457 640.631 C 830.779 671.764 864.298 699.613 899.417 726.302 C 886.915 733.455 873.48 739.514 860.662 746.138 C 848.234 736.211 835.276 727.023 823.072 716.79 C 724.904 634.471 637.732 536.823 581.907 420.585 C 543.752 341.141 501.209 207.068 531.833 120.044 z"/>
<path transform="translate(0,0)" fill="rgb(246,246,240)" d="M 1162.91 677.471 C 1208.1 676.971 1254.73 681.874 1298.66 692.572 A 68.4151 68.4151 0 0 0 1308.38 706.451 C 1317.54 716.439 1337.99 728.489 1351.9 728.661 C 1365.85 728.834 1358.01 719.075 1362.47 714.642 C 1392.08 723.922 1421.01 741.666 1446.35 759.369 C 1408.41 751.673 1344.66 765.635 1307.19 776.291 C 1129.52 826.819 975.781 961.209 886.614 1121.3 C 879.746 1120.29 873.117 1119.9 866.172 1120.06 C 823.362 1121.09 784.622 1137.14 754.987 1168.41 A 182.504 182.504 0 0 0 706.085 1298.13 C 707.836 1348.33 731.046 1394.94 767.7 1428.86 C 784.376 1443.34 801.362 1453.77 821.705 1462.26 C 817.189 1472.97 813.584 1484.3 809.609 1495.23 C 754.579 1463.92 715.175 1420.93 687.406 1364.27 C 640.025 1267.59 646.736 1149.63 680.888 1050.01 C 701.94 1061.93 723.108 1073.42 745.731 1082.14 C 773.986 1093.03 807.812 1099.31 836.559 1086.43 C 854.882 1078.22 870.05 1064.15 877.029 1045.05 A 66.0979 66.0979 0 0 0 879.952 1010.92 C 876.625 992.359 867.14 974.04 859.794 956.77 C 839.451 908.944 816.62 862.791 794.689 815.729 C 907.347 732.004 1020.97 680.288 1162.91 677.471 z"/>
<path transform="translate(0,0)" fill="rgb(93,20,88)" d="M 1177.29 698.181 C 1182.15 697.932 1187.03 698.185 1191.74 699.484 C 1206.83 703.637 1219.48 715.543 1226.76 729.164 C 1231.13 737.331 1234.18 747.278 1231.17 756.418 C 1228.65 764.079 1223.7 768.012 1216.85 771.734 C 1208.84 772.421 1201.95 772.263 1194.45 768.913 C 1180.68 762.76 1169.07 747.793 1164.22 733.649 C 1161.5 725.697 1159.65 715.874 1163.67 708.018 C 1166.71 702.081 1171.16 699.986 1177.29 698.181 z"/>
<path transform="translate(0,0)" fill="rgb(246,246,240)" d="M 1176.48 705.223 A 71.9084 71.9084 0 0 1 1183.83 705.168 C 1195.05 705.75 1205.86 714.169 1212.97 722.45 C 1218.19 728.522 1223.74 736.454 1222.75 744.852 C 1222.17 749.842 1219.12 752.66 1215.32 755.547 C 1212.22 755.906 1209.59 755.926 1206.58 754.984 C 1193.02 750.742 1179.18 736.371 1172.76 723.99 C 1170.78 720.187 1168.74 714.793 1170.5 710.528 C 1171.74 707.501 1173.73 706.565 1176.48 705.223 z"/>
<path transform="translate(0,0)" fill="rgb(93,20,88)" d="M 1007.17 779.183 C 1013.68 779.892 1019.88 781.515 1025.7 784.568 C 1039.74 791.932 1051.12 805.417 1055.74 820.61 C 1058.1 828.377 1058.94 837.813 1054.81 845.16 C 1051.2 851.58 1044.95 855.191 1038.12 857.248 C 1028.91 857.875 1021.38 857.216 1013.22 852.603 C 1000.44 845.377 990.943 830.141 987.402 816.068 C 985.232 807.444 984.541 797.185 989.542 789.366 C 993.918 782.524 999.643 780.788 1007.17 779.183 z"/>
<path transform="translate(0,0)" fill="rgb(246,246,240)" d="M 1003.94 787.962 C 1007.02 787.844 1010.08 787.991 1013.09 788.709 C 1024.64 791.459 1035.44 801.797 1041.69 811.569 C 1045.7 817.849 1049.91 825.959 1047.88 833.598 C 1046.76 837.833 1044.34 840.063 1040.66 842.174 C 1036.87 842.3 1032.8 842.358 1029.13 841.349 C 1016.7 837.938 1005.69 825.292 999.835 814.211 C 996.861 808.58 994.196 801.731 996.443 795.361 C 997.836 791.411 1000.38 789.837 1003.94 787.962 z"/>
<path transform="translate(0,0)" fill="rgb(246,246,240)" d="M 225.878 307.155 C 240.786 306.409 255.045 308.495 269.556 311.9 C 316.852 322.997 361.477 345.087 402.354 370.871 C 527.644 449.902 623.238 566.513 701.017 691.092 A 2116.61 2116.61 0 0 1 838.046 953.707 C 845.95 972.35 855.811 992.408 860.021 1012.25 C 861.682 1020.07 861.808 1027.96 859.844 1035.75 C 855.991 1051.04 846.098 1061.63 832.853 1069.35 C 811.997 1078.98 793.549 1077.26 772.048 1070.44 C 719.364 1053.74 658.588 1014.47 613.028 983.143 C 473.897 887.481 350.534 780.311 271.198 628.615 C 231.808 553.3 200.332 458.025 204.696 372.065 C 205.472 356.785 206.943 340.375 211.659 325.735 C 214.455 317.057 217.635 311.305 225.878 307.155 z"/>
<path transform="translate(0,0)" fill="rgb(93,20,88)" d="M 763.319 944.311 C 772.912 944.272 781.794 945.476 790.388 950.03 A 45.6657 45.6657 0 0 1 813.29 978.605 C 816.11 988.982 815.332 1000.84 809.803 1010.22 C 803.385 1021.11 792.393 1025.52 780.784 1028.5 C 769.436 1029.6 756.807 1025.99 747.513 1019.56 A 44.3319 44.3319 0 0 1 728.812 990.871 C 726.857 979.77 729.295 967.924 736.166 958.89 C 743.017 949.882 752.377 945.822 763.319 944.311 z"/>
<path transform="translate(0,0)" fill="rgb(246,246,240)" d="M 758.751 952.1 C 759.072 952.083 759.394 952.063 759.715 952.05 C 772.565 951.535 783.699 954.316 793.19 963.555 C 800.723 970.888 805.961 981.485 805.734 992.137 C 805.572 999.76 802.537 1007.18 796.689 1012.2 C 789.479 1018.37 779.115 1019.84 769.955 1018.85 C 758.819 1017.64 750.323 1012.5 743.482 1003.78 C 755.844 1009.52 765.842 1013.02 779.627 1013.31 C 782.263 1012.65 784.959 1011.99 787.442 1010.87 C 792.955 1008.36 797.692 1004.15 799.772 998.35 A 20.6809 20.6809 0 0 0 798.377 981.597 C 796.801 978.699 795.132 977.252 791.926 976.255 C 784.866 978.28 784.632 987.318 781.069 993.011 C 776.797 999.835 770.518 1002.94 762.937 1004.81 L 761.591 1005.13 C 758.31 1004.44 755.015 1003.6 751.998 1002.09 C 745.125 998.664 739.805 991.75 737.751 984.417 C 735.897 977.798 736.575 970.559 740.081 964.596 C 744.389 957.27 750.909 954.314 758.751 952.1 z"/>
<path transform="translate(0,0)" fill="rgb(93,20,88)" d="M 341.42 427.191 C 349.435 426.263 356.708 426.994 364.476 428.984 C 387.556 434.896 409.199 449.029 428.474 462.66 C 523.259 529.691 622.263 654.915 681.812 754.344 C 698.075 781.499 735.034 841.264 742.022 868.776 C 743.91 876.209 743.822 883.628 741.812 891.032 C 736.525 910.509 720.987 924.243 704.093 933.935 A 68.5669 68.5669 0 0 1 699.037 936.309 C 679.971 944.181 656.441 942.136 637.842 933.872 C 618.049 925.076 599.453 910.318 581.732 897.87 C 480.905 827.05 374.108 717.107 329.35 600.647 C 312.935 557.934 293.941 495.986 313.756 452.363 C 319.664 439.356 328.308 432.09 341.42 427.191 z"/>
<path transform="translate(0,0)" fill="rgb(246,246,240)" d="M 367.628 466.087 C 375.518 465.392 382.623 466.502 390.196 468.586 C 418.542 476.385 446.174 496.567 468.987 514.889 C 566.141 592.92 643.401 701.796 704.614 809.385 C 715.236 828.054 734.625 856.922 728.11 878.819 C 722.792 896.693 707.346 910.694 691.307 919.197 A 129.165 129.165 0 0 1 685.506 921.405 C 667.652 927.648 645.25 928.489 628.056 919.98 C 609.09 910.594 591.328 895.259 574.52 882.376 C 483.847 812.877 388.047 711.439 350.504 601.693 C 339.412 569.267 325.213 518.867 341.755 486.764 C 347.447 475.719 356.068 469.735 367.628 466.087 z"/>
<path transform="translate(0,0)" fill="rgb(246,246,240)" d="M 1412.24 823.5 L 1422.24 822.966 C 1438.86 833.842 1454.8 845.494 1470.62 857.506 C 1463.56 858.672 1456.79 860.121 1450.33 863.32 C 1436.78 870.026 1429.55 881.15 1424.94 895.066 C 1433.11 891.283 1440.32 885.418 1448.37 881.344 C 1458.74 876.105 1471.52 872.683 1482.83 876.655 C 1503.08 883.764 1520.77 915.784 1529.58 934.444 C 1519.97 926.647 1509.37 918.633 1496.78 916.68 C 1490.68 915.734 1484.56 916.734 1479.55 920.491 C 1470.98 926.924 1467.65 938.849 1466.49 949.052 C 1461.79 990.41 1486.15 1062.29 1511.86 1093.92 C 1521.35 1105.59 1535.56 1117.6 1551.12 1118.78 C 1559.47 1119.41 1567.86 1116.19 1573.99 1110.54 C 1585.45 1099.99 1586.64 1084.02 1587.37 1069.48 C 1596.93 1099.28 1601.23 1123.61 1630.03 1140.77 C 1639.3 1146.3 1649.71 1150.99 1658.32 1157.49 C 1673.79 1169.19 1675.09 1185.61 1677.38 1203.61 C 1684.6 1260.25 1678.1 1318.93 1642.14 1365.14 C 1563.73 1465.91 1369.19 1526.7 1245.77 1542.17 C 1138.22 1559.61 986.453 1561.13 882.574 1525.62 C 885.392 1507.14 890.725 1489.12 893.527 1470.6 A 230.16 230.16 0 0 0 904.004 1469.01 C 946.218 1461.24 981.081 1433.37 1004.83 1398.41 A 185.362 185.362 0 0 0 1033.15 1256.53 C 1022.75 1203.98 997.39 1170.49 953.557 1141.35 C 974.287 1106.14 999.151 1070.65 1025.72 1039.53 C 1104.24 947.518 1192.24 878.841 1309.34 843.666 C 1344.07 833.237 1376.13 826.331 1412.24 823.5 z"/>
<path transform="translate(0,0)" fill="rgb(93,20,88)" d="M 1383.8 1318.92 L 1384.49 1320.35 C 1371.85 1340.29 1355.25 1359.01 1340.69 1377.63 C 1307.6 1419.93 1273.78 1461.67 1242.07 1505.02 C 1241.18 1504.12 1241.66 1504.79 1241.43 1502.64 C 1258.3 1466.33 1353.17 1346.19 1383.8 1318.92 z"/>
<path transform="translate(0,0)" fill="rgb(93,20,88)" d="M 1325.11 1259.32 L 1326.39 1259.53 C 1319.95 1264.93 1249.84 1284.63 1234.47 1290.18 C 1177.88 1310.63 1122.92 1336.68 1068.34 1361.9 L 1067.26 1361.6 C 1073.09 1354.16 1092.72 1345.4 1101.28 1340.86 C 1172.73 1302.96 1245.64 1275.11 1325.11 1259.32 z"/>
<path transform="translate(0,0)" fill="rgb(93,20,88)" d="M 1346.52 1295.09 L 1346.55 1296.66 C 1336.91 1306.44 1319.51 1316.01 1307.81 1324.14 A 4234.86 4234.86 0 0 0 1234.17 1376.94 C 1192.91 1407.47 1154.68 1442.37 1112.93 1472.22 L 1112.85 1471.79 C 1114.82 1466.22 1134.24 1450.93 1139.71 1446.03 C 1203.63 1388.82 1270.15 1334.96 1346.52 1295.09 z"/>
<path transform="translate(0,0)" fill="rgb(93,20,88)" d="M 1235.87 911.304 C 1250.02 910.379 1261.38 913.533 1273.05 921.388 A 169.733 169.733 0 0 0 1244.31 927.144 C 1190.98 943.171 1159.12 981.434 1133.63 1028.61 L 1120.37 1055.15 C 1121.88 1026.21 1135.71 993.311 1152.33 969.832 C 1171 943.468 1203.28 916.766 1235.87 911.304 z"/>
<path transform="translate(0,0)" fill="rgb(93,20,88)" d="M 1579.96 1214.56 C 1574.93 1206.63 1525 1195.71 1514.81 1182.43 C 1512.83 1179.85 1512.07 1176.78 1512.5 1173.57 C 1513.12 1168.92 1516.96 1165.2 1520.51 1162.49 C 1536.45 1150.28 1565.12 1140.31 1585.36 1143.3 C 1592.22 1144.31 1599.12 1147.2 1603.22 1153.04 C 1606.95 1158.34 1607.45 1164.8 1606.42 1171.03 C 1603.75 1187.21 1595.69 1203.38 1582.28 1213 C 1585.89 1227.81 1593.06 1254.81 1591.34 1269.32 C 1603.03 1275.69 1615.44 1280.99 1626.55 1288.34 C 1613.48 1286.51 1601.36 1281.89 1589.74 1275.8 C 1567.56 1293.27 1546.9 1314.08 1523.25 1329.47 C 1540.76 1306.46 1565.94 1288.22 1587.26 1268.85 C 1584.41 1259.68 1581.14 1226.02 1579.96 1214.56 z"/>
<path transform="translate(0,0)" fill="rgb(246,246,240)" d="M 1561.46 1155.27 C 1568.3 1154.45 1579.22 1154.08 1585.47 1157.22 L 1585.68 1158.91 C 1575.19 1164.23 1560.26 1166.23 1548.76 1169.66 C 1542.01 1172.06 1532.11 1176.59 1525.07 1173.96 C 1524.72 1172.31 1524.83 1172.17 1525.87 1170.78 C 1533.02 1161.1 1550.21 1157.16 1561.46 1155.27 z"/>
<path transform="translate(0,0)" fill="rgb(93,20,88)" d="M 1248.01 981.382 C 1273.45 979.38 1298.15 988.612 1318.16 1003.97 C 1351.99 1029.92 1384.04 1080.7 1389.43 1122.98 C 1392.58 1147.74 1387.06 1173.63 1371.46 1193.4 C 1352.71 1217.15 1325.71 1228.89 1296.24 1232.54 C 1295.9 1232.6 1295.57 1232.67 1295.22 1232.71 C 1263.64 1236.72 1224.02 1221.68 1199.31 1202.69 C 1174.98 1184 1159.67 1158.56 1155.87 1128.08 C 1151.2 1090.58 1160.78 1047.26 1184.59 1017.35 C 1200.33 997.574 1222.86 984.244 1248.01 981.382 z"/>
<path transform="translate(0,0)" fill="rgb(246,246,240)" d="M 1257.64 1017.1 C 1259.65 1017.01 1261.69 1016.91 1263.7 1017.11 C 1270.7 1017.79 1276.84 1023.48 1280.95 1028.8 C 1287.04 1036.69 1292.51 1048.33 1290.73 1058.47 C 1289.8 1063.8 1287.25 1066.13 1282.88 1069 C 1280.5 1069.09 1278.37 1069.12 1276.04 1068.51 C 1267.12 1066.2 1260.06 1058.24 1255.83 1050.41 C 1251.65 1042.69 1248.27 1032.82 1251.05 1024.11 C 1252.29 1020.19 1254.22 1018.89 1257.64 1017.1 z"/>
<path transform="translate(0,0)" fill="rgb(246,246,240)" d="M 1239.74 1003.07 C 1242.11 1002.8 1241.17 1002.45 1242.7 1003.64 C 1241.73 1007.88 1240.74 1012.14 1240.1 1016.43 C 1235.59 1046.4 1249.16 1070.53 1266.68 1093.79 C 1281.51 1113.48 1302.68 1136.86 1328.74 1140.07 C 1338.48 1141.26 1348.54 1139.5 1356.28 1133.18 C 1368.52 1123.16 1372.23 1108.09 1373.5 1093.11 C 1379.4 1111.25 1383.69 1129.11 1381.88 1148.32 C 1379.67 1171.78 1366.89 1190.71 1349.02 1205.4 A 105.065 105.065 0 0 1 1322.41 1219.21 C 1294.69 1228.78 1264.22 1225.69 1238.05 1212.97 C 1211.53 1200.08 1190.56 1178.09 1181.02 1150 C 1169.19 1115.15 1176.95 1077.32 1193.24 1045.26 C 1203.29 1025.49 1218.32 1009.9 1239.74 1003.07 z"/>
</svg>